<svg width="1280" height="420" viewBox="0 0 1280 420" fill="none" xmlns="http://www.w3.org/2000/svg">
  <defs>
    <linearGradient id="lineGrad" x1="0" y1="0" x2="1" y2="0">
      <stop offset="0" stop-color="#171717"/>
      <stop offset="0.5" stop-color="#396FF8"/>
      <stop offset="1" stop-color="#171717"/>
      <animateTransform attributeName="gradientTransform" type="translate" values="-1 0;1 0;-1 0" dur="8s" repeatCount="indefinite"/>
    </linearGradient>
  </defs>
  <rect width="1280" height="420" rx="36" fill="#171717"/>
  <rect x="0" y="0" width="1280" height="420" rx="36" stroke="#262626"/>

  <g opacity="0.6">
    <path d="M0 92H440" stroke="url(#lineGrad)" stroke-width="2"/>
    <path d="M840 328H1280" stroke="url(#lineGrad)" stroke-width="2"/>
    <path d="M0 328H300" stroke="#262626" stroke-width="2"/>
    <path d="M980 92H1280" stroke="#262626" stroke-width="2"/>
  </g>

  <g transform="translate(154 110)">
    <rect width="140" height="140" rx="30" fill="#396FF8"/>
    <rect x="29" y="29" width="36" height="28" rx="3" fill="#F5F5F5"/>
    <rect x="69" y="29" width="39" height="39" rx="3" fill="#F5F5F5"/>
    <rect x="29" y="61" width="19" height="47" rx="3" fill="#F5F5F5"/>
    <rect x="52" y="61" width="28" height="22" rx="3" fill="#F5F5F5"/>
    <path d="M52 87H108V108H52V87Z" fill="#F5F5F5"/>
  </g>

  <text x="342" y="182" fill="#F5F5F5" font-size="92" font-family="Inter,Arial,sans-serif" font-weight="700" letter-spacing="6">TEBRIX</text>
  <text x="344" y="230" fill="#9CA3AF" font-size="28" font-family="Inter,Arial,sans-serif" font-weight="500">Visual builder for Tebex stores</text>
  <text x="344" y="282" fill="#F5F5F5" font-size="22" font-family="Inter,Arial,sans-serif" font-weight="500">Design visually. Publish cleanly. Keep it simple.</text>

  <g transform="translate(344 316)">
    <rect width="156" height="36" rx="18" fill="#101010" stroke="#262626"/>
    <circle cx="22" cy="18" r="5" fill="#396FF8"/>
    <text x="36" y="23" fill="#F5F5F5" font-size="14" font-family="Inter,Arial,sans-serif" font-weight="600">ACTIVE BUILD</text>
  </g>
  <g transform="translate(514 316)">
    <rect width="176" height="36" rx="18" fill="#101010" stroke="#262626"/>
    <rect x="14" y="10" width="12" height="12" rx="3" fill="#396FF8"/>
    <text x="38" y="23" fill="#F5F5F5" font-size="14" font-family="Inter,Arial,sans-serif" font-weight="600">VISUAL BUILDER</text>
  </g>
  <g transform="translate(704 316)">
    <rect width="144" height="36" rx="18" fill="#101010" stroke="#262626"/>
    <path d="M18 12H30V24H18V12Z" fill="#396FF8"/>
    <path d="M21.5 15.5H26.5V20.5H21.5V15.5Z" fill="#F5F5F5"/>
    <text x="40" y="23" fill="#F5F5F5" font-size="14" font-family="Inter,Arial,sans-serif" font-weight="600">FOR TEBEX</text>
  </g>
</svg>
